<svg version="1.1" xmlns="http://www.w3.org/2000/svg" xmlns:xlink="http://www.w3.org/1999/xlink" width="699.428px" height="699.428px" viewBox="0,0,256,256">
    <g fill-opacity="1" fill="#FFFFFF" fill-rule="nonzero" stroke="none" stroke-width="1" stroke-linecap="butt" stroke-linejoin="miter" stroke-miterlimit="10" stroke-dasharray="" stroke-dashoffset="0" font-family="none" font-weight="none" font-size="none" text-anchor="none" style="mix-blend-mode: normal">
        <g transform="scale(0.36601,0.36601)">
            <g>
                <path d="M502.714,0c-2.71,0 -262.286,0 -262.286,0c-46.25,0 -87.428,42.425 -87.428,87.429l-25.267,0.59c-46.228,0 -84.019,41.834 -84.019,86.838v437.143c0,45.004 41.179,87.428 87.429,87.428h327.857c46.249,0 87.428,-42.424 87.428,-87.428h21.857c46.25,0 87.429,-42.424 87.429,-87.428v-349.19zM459,655.715h-327.857c-22.95,0 -43.714,-21.441 -43.714,-43.715v-437.143c0,-22.272 18.688,-42.993 41.638,-42.993l23.933,-0.721v393.429c0,45.004 41.178,87.428 87.428,87.428h262.286c0,22.273 -20.765,43.715 -43.714,43.715zM612,524.572c0,22.271 -20.765,43.713 -43.715,43.713h-327.857c-22.95,0 -43.714,-21.441 -43.714,-43.713v-437.143c0,-22.272 20.764,-43.714 43.714,-43.714h218.572c-0.351,50.337 0,87.975 0,87.975c0,45.419 40.872,86.882 87.428,86.882c0,0 23.213,0 65.572,0zM546.428,174.857c-23.277,0 -43.714,-42.293 -43.714,-64.981c0,0 0,-22.994 0,-65.484v-0.044l109.286,130.509zM502.714,306.394h-196.714c-12.065,0 -21.857,9.77 -21.857,21.835c0,12.065 9.792,21.835 21.857,21.835h196.714c12.065,0 21.857,-9.771 21.857,-21.835c0,-12.065 -9.792,-21.835 -21.857,-21.835zM502.714,415.57h-196.714c-12.065,0 -21.857,9.77 -21.857,21.834c0,12.066 9.792,21.836 21.857,21.836h196.714c12.065,0 21.857,-9.77 21.857,-21.836c0,-12.064 -9.792,-21.834 -21.857,-21.834z"></path>
            </g>
        </g>
    </g>
</svg>
